<?xml version="1.0" encoding="iso-8859-1"?>
<!-- Generator: Adobe Illustrator 19.0.0, SVG Export Plug-In . SVG Version: 6.00 Build 0)  -->
<svg fill="#fff" version="1.1" id="Layer_1" xmlns="http://www.w3.org/2000/svg" xmlns:xlink="http://www.w3.org/1999/xlink" x="0px" y="0px"
	 viewBox="0 0 496 496" style="enable-background:new 0 0 496 496;" xml:space="preserve">
<g>
	<g>
		<path d="M321.824,276.528c-0.88-1.424-3.168-2.304-6.608-4.016c-3.456-1.68-20.48-10-23.632-11.152
			c-1.376-0.496-2.592-0.896-3.712-0.896c-1.472,0-2.784,0.672-4.08,2.608c-2.304,3.44-8.944,11.152-10.944,13.456
			c-1.136,1.312-2.304,1.968-3.712,1.968c-1.056,0-2.288-0.368-3.76-1.12c-3.488-1.68-14.624-5.328-27.824-16.992
			c-10.272-9.104-17.216-20.336-19.248-23.776c-2.016-3.408-0.208-5.28,1.536-6.976c1.552-1.584,3.44-4.032,5.2-6.032
			c1.728-2,2.304-3.424,3.44-5.712c1.136-2.288,0.576-4.304-0.304-6.016c-0.848-1.712-7.76-18.592-10.672-25.472
			c-2.144-5.12-4.304-5.776-6.096-5.776c-0.608,0-1.184,0.08-1.696,0.08c-1.984,0-4.272-0.304-6.608-0.304
			c-2.304,0-6.032,0.864-9.216,4.32c-3.152,3.408-12.112,11.712-12.112,28.592c0,16.896,12.384,33.184,14.144,35.472
			c1.712,2.304,23.92,38.064,59.056,51.808c20.368,7.968,28.944,9.776,33.776,9.776c3.52,0,5.056-0.96,7.728-1.2
			c6.32-0.56,20.448-8.32,23.344-16.32C322.704,284.848,322.704,277.952,321.824,276.528z"/>
	</g>
</g>
<g>
	<g>
		<g>
			<path d="M362.944,0H133.056C60.928,0,0,60.944,0,133.056v229.872C0,435.056,60.928,496,133.056,496h229.888
				C435.056,496,496,435.056,496,362.912V133.056C496,60.944,435.072,0,362.944,0z M464,362.912
				c0,54.784-46.272,101.072-101.056,101.072H133.056C78.288,463.984,32,417.712,32,362.912V133.056C32,78.288,78.288,32,133.056,32
				h229.888C417.712,32,464,78.272,464,133.056V362.912z"/>
			<path d="M250.608,88.32c-86.592,0-157.04,69.968-157.04,155.984c0,25.936,6.448,51.36,18.736,73.968l-23.12,68.256
				c-1.936,5.712-0.496,12.016,3.728,16.336c3.056,3.136,7.2,4.8,11.424,4.8c1.616,0,3.248-0.24,4.848-0.752l71.76-22.784
				c21.52,10.56,45.456,16.128,69.664,16.128c86.608,0,157.072-69.952,157.072-155.952C407.68,158.288,337.216,88.32,250.608,88.32z
				 M250.576,368.272c-21.184,0-42.096-5.328-60.464-15.424c-2.368-1.296-5.024-1.968-7.696-1.968c-1.616,0-3.248,0.24-4.864,0.752
				L129.6,366.848l15.296-45.12c1.52-4.48,0.976-9.424-1.488-13.472c-11.696-19.2-17.872-41.312-17.872-63.936
				c0-68.352,56.096-123.984,125.04-123.984c68.96,0,125.072,55.632,125.072,123.984
				C375.648,312.656,319.552,368.272,250.576,368.272z"/>
		</g>
	</g>
</g>
<g>
</g>
<g>
</g>
<g>
</g>
<g>
</g>
<g>
</g>
<g>
</g>
<g>
</g>
<g>
</g>
<g>
</g>
<g>
</g>
<g>
</g>
<g>
</g>
<g>
</g>
<g>
</g>
<g>
</g>
</svg>
