<?xml version="1.0" encoding="iso-8859-1"?>
<!-- Generator: Adobe Illustrator 19.0.0, SVG Export Plug-In . SVG Version: 6.00 Build 0)  -->
<svg fill="#fff" version="1.1" id="Capa_1" xmlns="http://www.w3.org/2000/svg" xmlns:xlink="http://www.w3.org/1999/xlink" x="0px" y="0px"
	 viewBox="0 0 512 512" style="enable-background:new 0 0 512 512;" xml:space="preserve">
<g>
	<g>
		<rect x="16" y="239.99" width="480" height="32"/>
	</g>
</g>
<g>
	<g>
		<rect x="224" y="66.23" width="32" height="379.52"/>
	</g>
</g>
<g>
	<g>
		<path d="M506.56,19.958c-3.456-3.04-7.872-4.352-12.672-3.84l-480,64C5.952,81.206,0,87.99,0,95.99v320
			c0,8.032,5.952,14.816,13.888,15.872l480,64c0.704,0.096,1.44,0.128,2.112,0.128c3.84,0,7.584-1.408,10.528-3.968
			c3.488-3.04,5.472-7.392,5.472-12.032v-448C512,27.382,510.016,22.998,506.56,19.958z M480,461.686L32,401.974V110.006l448-59.744
			V461.686z"/>
	</g>
</g>
<g>
</g>
<g>
</g>
<g>
</g>
<g>
</g>
<g>
</g>
<g>
</g>
<g>
</g>
<g>
</g>
<g>
</g>
<g>
</g>
<g>
</g>
<g>
</g>
<g>
</g>
<g>
</g>
<g>
</g>
</svg>
